<svg xmlns="http://www.w3.org/2000/svg" viewBox="0 0 1090.22 445"><defs><style>.cls-1{fill:none;}.cls-1,.cls-2{stroke:#66fcf1;stroke-miterlimit:10;stroke-width:7px;}.cls-2{fill:#828390;}</style></defs><title>Carrier</title><g id="Capa_2" data-name="Capa 2"><g id="Capa_1-2" data-name="Capa 1"><path class="cls-1" d="M997.5,161.73V3.5H660.81l-196.87,91H3.66c-.16,18-.16,11-.16,128s0,110,.16,128H463.94l196.87,91H997.5V283.27c89,.23,89,.23,89.22-60.77C1086.5,161.5,1086.5,161.5,997.5,161.73Z"/><path class="cls-2" d="M552.06,198.87h97.88"/><line class="cls-2" x1="674.88" y1="198.87" x2="786.47" y2="198.87"/><line class="cls-2" x1="802.99" y1="198.87" x2="905.46" y2="198.87"/><path class="cls-2" d="M553.82,246.21H651.7"/><line class="cls-2" x1="676.63" y1="246.21" x2="788.23" y2="246.21"/><line class="cls-2" x1="804.74" y1="246.21" x2="907.21" y2="246.21"/><path class="cls-2" d="M183,198.79h97.88"/><line class="cls-2" x1="305.82" y1="198.79" x2="417.42" y2="198.79"/><line class="cls-2" x1="433.94" y1="198.79" x2="536.4" y2="198.79"/><path class="cls-2" d="M184.77,246.13h97.88"/><line class="cls-2" x1="307.58" y1="246.13" x2="419.17" y2="246.13"/><line class="cls-2" x1="435.69" y1="246.13" x2="538.16" y2="246.13"/></g></g></svg>