<svg xmlns="http://www.w3.org/2000/svg" viewBox="0 0 1085.3 174.43"><defs><style>.cls-1{fill:none;stroke:#66fcf1;stroke-miterlimit:10;stroke-width:7px;}.cls-2{fill:#66fcf1;}</style></defs><title>Cruiser</title><g id="Capa_2" data-name="Capa 2"><g id="Capa_1-2" data-name="Capa 1"><path class="cls-1" d="M1000.5,61.22c-157.31-49-304.93-61-430-57H3.5v166h567c125.07,4,272.69-8,430-57q39-12.15,75-26Q1039.47,73.44,1000.5,61.22Z"/><line class="cls-1" x1="4" y1="38.22" x2="275" y2="38.22"/><line class="cls-1" x1="33" y1="85.22" x2="304" y2="85.22"/><line class="cls-1" x1="4.5" y1="122.22" x2="281" y2="122.22"/><polygon class="cls-1" points="559.23 40.75 520.96 40.75 493.9 67.81 493.9 106.08 520.96 133.14 559.23 133.14 586.29 106.08 586.29 67.81 559.23 40.75"/><line class="cls-1" x1="3.5" y1="170.22" x2="142.5" y2="4.22"/><line class="cls-1" x1="3.5" y1="4.22" x2="139.5" y2="170.22"/><circle class="cls-1" cx="72" cy="84.72" r="23.5"/><polygon class="cls-2" points="549.75 63.63 530.44 63.63 516.78 77.29 516.78 96.6 530.44 110.25 549.75 110.25 563.4 96.6 563.4 77.29 549.75 63.63"/><rect class="cls-1" x="751" y="37.72" width="66" height="95"/><rect class="cls-2" x="783.5" y="63.22" width="33" height="47"/></g></g></svg>