<svg xmlns="http://www.w3.org/2000/svg" viewBox="0 0 1035.5 255.29"><defs><style>.cls-1{fill:none;stroke-width:7px;}.cls-1,.cls-2{stroke:#66fcf1;stroke-miterlimit:10;}.cls-2{fill:#66fcf1;}</style></defs><title>Destroyer</title><g id="Capa_2" data-name="Capa 2"><g id="Capa_1-2" data-name="Capa 1"><path class="cls-1" d="M1032,200.48c-134.56,28.34-22.78,51.31-50.87,51.31H362.46c-20.57,0-141.57-16.62-175.63-39.26L8,127.65,186.83,38.52c34.06-18.39,155.06-35,175.63-35H981.13c28.09,0-83.69,23,50.87,51.31Z"/><rect class="cls-2" x="291.58" y="95.69" width="1.41" height="4.56"/><path class="cls-2" d="M359.62,70.15H297.86a6.28,6.28,0,0,0-6.28,6.28v8.74H293V81.41a7,7,0,0,1,7-7h52a7,7,0,0,1,7,7v47.7a7,7,0,0,1-7,7H300a7,7,0,0,1-7-7v-3.34h-1.41v8.94a6.28,6.28,0,0,0,6.28,6.28h61.76a6.28,6.28,0,0,0,6.27-6.28V76.43A6.28,6.28,0,0,0,359.62,70.15Z"/><rect class="cls-2" x="291.58" y="110.76" width="1.41" height="4.49"/><rect class="cls-2" x="253.4" y="85.17" width="39.6" height="10.51"/><rect class="cls-2" x="253.4" y="100.25" width="39.6" height="10.51"/><rect class="cls-2" x="253.4" y="115.25" width="39.6" height="10.51"/><path class="cls-1" d="M411.65,11.88H940.53A3.16,3.16,0,0,1,943.69,15v221.4a3.16,3.16,0,0,1-3.16,3.16H411.65A23.56,23.56,0,0,1,388.09,216V35.44a23.56,23.56,0,0,1,23.56-23.56Z"/><rect class="cls-1" x="607.56" y="48.62" width="311.53" height="133.26" rx="4.93"/><rect class="cls-2" x="451.6" y="63.82" width="3" height="0.92" transform="translate(87.25 339.22) rotate(-45)"/><path class="cls-2" d="M497.35,82.67,468.63,53.94a4.13,4.13,0,0,0-5.84,0L458.72,58l.66.65,1.75-1.75a4.63,4.63,0,0,1,6.55,0l24.17,24.17a4.63,4.63,0,0,1,0,6.55l-22.18,22.19a4.64,4.64,0,0,1-6.56,0L438.94,85.65a4.63,4.63,0,0,1,0-6.55l1.55-1.56-.65-.65-4.16,4.16a4.13,4.13,0,0,0,0,5.84l28.72,28.72a4.12,4.12,0,0,0,5.84,0l27.11-27.1A4.13,4.13,0,0,0,497.35,82.67Z"/><rect class="cls-2" x="444.63" y="70.82" width="2.95" height="0.92" transform="translate(80.26 336.32) rotate(-45)"/><rect class="cls-2" x="444.27" y="38.88" width="6.92" height="26.05" transform="translate(94.44 331.79) rotate(-45)"/><rect class="cls-2" x="437.26" y="45.89" width="6.92" height="26.05" transform="translate(87.42 328.89) rotate(-45)"/><rect class="cls-2" x="430.28" y="52.87" width="6.92" height="26.05" transform="translate(80.44 326) rotate(-45)"/><rect class="cls-2" x="443.17" y="188.13" width="0.99" height="3.22" transform="translate(-4.22 369.3) rotate(-45)"/><path class="cls-2" d="M463.38,142.29l-30.8,30.8a4.42,4.42,0,0,0,0,6.26l4.36,4.36.7-.7-1.88-1.88a5,5,0,0,1,0-7l25.92-25.92a5,5,0,0,1,7,0L492.49,172a5,5,0,0,1,0,7l-25.92,25.92a5,5,0,0,1-7,0l-1.67-1.66-.7.7,4.47,4.46a4.42,4.42,0,0,0,6.26,0l30.8-30.8a4.42,4.42,0,0,0,0-6.26l-29.07-29.07A4.42,4.42,0,0,0,463.38,142.29Z"/><rect class="cls-2" x="450.67" y="195.66" width="0.99" height="3.17" transform="translate(-7.33 376.8) rotate(-45)"/><rect class="cls-2" x="416.43" y="191.79" width="27.93" height="7.42" transform="translate(-12.18 361.59) rotate(-45)"/><rect class="cls-2" x="423.95" y="199.31" width="27.93" height="7.42" transform="translate(-15.3 369.11) rotate(-45)"/><rect class="cls-2" x="431.43" y="206.79" width="27.93" height="7.42" transform="translate(-18.39 376.6) rotate(-45)"/></g></g></svg>