<svg xmlns="http://www.w3.org/2000/svg" viewBox="0 0 988 442"><defs><style>.cls-1{fill:#66fcf1;}</style></defs><title>Submarine</title><g id="Capa_2" data-name="Capa 2"><g id="Capa_1-2" data-name="Capa 1"><path class="cls-1" d="M673.86,7A33.18,33.18,0,0,1,707,40.14V84h14.5C790.77,84,853.78,125.15,882,188.84l1.85,4.16h88.54l-28,23.88-39,33.3-6.23,5.32,6.23,5.32,39,33.3,28,23.88H887l-1.73,4.47a176.3,176.3,0,0,1-63.55,80.89A173.87,173.87,0,0,1,721.5,435h-539a173.35,173.35,0,0,1-68.12-13.84,177.31,177.31,0,0,1-93.54-93.54,174.56,174.56,0,0,1,0-136.24,177.31,177.31,0,0,1,93.54-93.54A173.35,173.35,0,0,1,182.5,84H568V40.14A33.18,33.18,0,0,1,601.14,7h72.72m0-7H601.14A40.14,40.14,0,0,0,561,40.14V77H182.5C82.13,77,0,159.12,0,259.5H0C0,359.88,82.13,442,182.5,442h539c77.32,0,143.8-48.74,170.26-117H988v-2.91L949,288.8l-39-33.3,39-33.3,39-33.29V186H888.44C860,122,795.76,77,721.5,77H714V40.14A40.14,40.14,0,0,0,673.86,0Z"/></g></g></svg>